<svg id="Layer_1" data-name="Layer 1" xmlns="http://www.w3.org/2000/svg" xmlns:xlink="http://www.w3.org/1999/xlink" viewBox="0 0 391.08 205.75"><defs><style>.cls-1{fill:url(#linear-gradient);}.cls-2{fill:url(#linear-gradient-2);}.cls-3{fill:url(#linear-gradient-3);}.cls-4{fill:url(#linear-gradient-4);}.cls-5{fill:#fff;}</style><linearGradient id="linear-gradient" x1="37.52" y1="131.88" x2="37.52" y2="0.19" gradientUnits="userSpaceOnUse"><stop offset="0" stop-color="#b3307c"/><stop offset="1" stop-color="#ff3183"/></linearGradient><linearGradient id="linear-gradient-2" x1="108.33" y1="132.44" x2="108.33" y2="0" xlink:href="#linear-gradient"/><linearGradient id="linear-gradient-3" x1="219.2" y1="132.25" x2="219.2" y2="0.19" xlink:href="#linear-gradient"/><linearGradient id="linear-gradient-4" x1="351.5" y1="131.88" x2="351.5" y2="0.56" xlink:href="#linear-gradient"/></defs><title>logo</title><path class="cls-1" d="M1.78,130.1Q0,128.32,0,124.37V6.19q0-6,11.26-6h6.37q11.27,0,11.26,6V107.3H69.41a4.58,4.58,0,0,1,4.31,2.26Q75,111.81,75,116.68v5.82q0,4.88-1.32,7.13a4.59,4.59,0,0,1-4.31,2.25H7.5Q3.57,131.88,1.78,130.1Z"/><path class="cls-2" d="M93.79,126.25V6.19Q93.79,0,105.05,0h6.57q11.25,0,11.25,6.19V126.25q0,6.19-11.25,6.19h-6.57Q93.8,132.44,93.79,126.25Z"/><path class="cls-3" d="M209,97,185.9,55.72c-1.62-2.76-3-5.19-4.12-7.32l-.75.19v77.66q0,6-11.26,6h-5.44q-11.25,0-11.26-6V6.19q0-6,11.26-6h9.94c6,0,9.94,1.68,11.82,5.06l31.14,55.53L219.11,64l1.69-3.19L252.5,5.25Q255.32.18,264.32.19h9.75q11.26,0,11.26,6V126.25q0,6-11.26,6h-5.44q-11.25,0-11.25-6V48.59l-.75-.19c-1.13,2.13-2.51,4.56-4.13,7.32L229.42,97a8.77,8.77,0,0,1-7.5,3.56h-5.44A8.77,8.77,0,0,1,209,97Z"/><path class="cls-4" d="M313.7,130.1q-1.79-1.78-1.78-5.73V8.07c0-2.63.59-4.53,1.78-5.73S316.8.56,319.42.56h65.85a4.59,4.59,0,0,1,4.31,2.25q1.32,2.25,1.32,7.13v5.82q0,4.88-1.32,7.13a4.59,4.59,0,0,1-4.31,2.25H340.81v27.2H380.2a4.62,4.62,0,0,1,4.32,2.25q1.31,2.25,1.31,7.13v5.81c0,3.26-.44,5.63-1.31,7.13a4.62,4.62,0,0,1-4.32,2.25H340.81V107.3h44.65a4.6,4.6,0,0,1,4.31,2.26q1.31,2.25,1.31,7.12v5.82q0,4.88-1.31,7.13a4.61,4.61,0,0,1-4.31,2.25h-66Q315.49,131.88,313.7,130.1Z"/><path class="cls-5" d="M.25,190a15.78,15.78,0,0,1,1-5.49,15.27,15.27,0,0,1,2.9-4.92,14.69,14.69,0,0,1,4.68-3.51,14.16,14.16,0,0,1,6.25-1.33,13.3,13.3,0,0,1,7.15,1.85,12,12,0,0,1,4.48,4.83L22.92,184a8.68,8.68,0,0,0-1.55-2.33,7.88,7.88,0,0,0-2-1.51,8.19,8.19,0,0,0-2.24-.79,11,11,0,0,0-2.24-.24,8.76,8.76,0,0,0-4.22,1,9.3,9.3,0,0,0-3,2.56,11.82,11.82,0,0,0-1.85,3.58,13,13,0,0,0-.62,4,12.4,12.4,0,0,0,.73,4.27A11.44,11.44,0,0,0,8,198a9.9,9.9,0,0,0,3.12,2.48,8.56,8.56,0,0,0,4,.93,10.41,10.41,0,0,0,2.31-.28,8.56,8.56,0,0,0,2.28-.91,9.14,9.14,0,0,0,2-1.57,8.13,8.13,0,0,0,1.53-2.28l4,2.28a9.4,9.4,0,0,1-2.06,3,13.85,13.85,0,0,1-3,2.22,15.34,15.34,0,0,1-3.56,1.37,14.76,14.76,0,0,1-3.68.48A12.67,12.67,0,0,1,9,204.37a15.49,15.49,0,0,1-4.61-3.6,16.7,16.7,0,0,1-3-5A16,16,0,0,1,.25,190Z"/><path class="cls-5" d="M55.75,205.71a13.41,13.41,0,0,1-6-1.32,14.81,14.81,0,0,1-4.63-3.49,15.78,15.78,0,0,1-3-5,16,16,0,0,1-1.06-5.74,15.53,15.53,0,0,1,1.12-5.85,16.3,16.3,0,0,1,3.08-5A14.61,14.61,0,0,1,50,176a13.61,13.61,0,0,1,5.89-1.28,13.09,13.09,0,0,1,6,1.36,15,15,0,0,1,4.61,3.56,16.37,16.37,0,0,1,3,5,15.94,15.94,0,0,1,1,5.67,15.76,15.76,0,0,1-1.1,5.86A15.38,15.38,0,0,1,66.26,201a15.06,15.06,0,0,1-4.67,3.4A13.48,13.48,0,0,1,55.75,205.71ZM46,190.19a12.86,12.86,0,0,0,.69,4.18,11.29,11.29,0,0,0,2,3.58,9.77,9.77,0,0,0,3.08,2.48,8.74,8.74,0,0,0,4,.92,8.58,8.58,0,0,0,4.12-1,9.75,9.75,0,0,0,3-2.57,11.35,11.35,0,0,0,1.9-3.57,13.11,13.11,0,0,0,.65-4.06,12.84,12.84,0,0,0-.69-4.2,11.35,11.35,0,0,0-2-3.53A9.72,9.72,0,0,0,59.78,180a9.15,9.15,0,0,0-8.12,0,9.62,9.62,0,0,0-3.06,2.52,11.07,11.07,0,0,0-1.92,3.55A12.72,12.72,0,0,0,46,190.19Z"/><path class="cls-5" d="M91.94,184v21.54H87.12V174.9h3.79L108.4,197v-22h4.87v30.55h-4Z"/><path class="cls-5" d="M131.84,205.49V174.9h20.38v4.27H136.66v9.13h13v4h-13v13.18Z"/><path class="cls-5" d="M189.45,201.22v4.27h-21V174.9h20.6v4.27H173.29v8.7H187v4H173.29v9.34Z"/><path class="cls-5" d="M206.12,205.49V174.9h13.31a8.6,8.6,0,0,1,3.82.86,9.88,9.88,0,0,1,3,2.26,10.76,10.76,0,0,1,2,3.19,9.66,9.66,0,0,1,.71,3.64,10.13,10.13,0,0,1-.43,3,10.76,10.76,0,0,1-1.2,2.62,8.42,8.42,0,0,1-1.9,2.09,7.92,7.92,0,0,1-2.46,1.32l7.2,11.63h-5.47L218,194.85H211v10.64ZM211,190.58h8.44a3.89,3.89,0,0,0,1.87-.45,4.34,4.34,0,0,0,1.45-1.25,6.35,6.35,0,0,0,.95-1.83,6.9,6.9,0,0,0,.34-2.2,6,6,0,0,0-.41-2.2,6.12,6.12,0,0,0-1.08-1.8,5,5,0,0,0-1.55-1.23,4,4,0,0,0-1.83-.45H211Z"/><path class="cls-5" d="M267.26,201.22v4.27h-21V174.9h20.59v4.27H251.1v8.7h13.66v4H251.1v9.34Z"/><path class="cls-5" d="M288.76,184v21.54h-4.83V174.9h3.79L305.22,197v-22h4.87v30.55h-4Z"/><path class="cls-5" d="M326.72,190a16,16,0,0,1,1-5.49,15.12,15.12,0,0,1,2.91-4.92,14.54,14.54,0,0,1,4.67-3.51,14.16,14.16,0,0,1,6.25-1.33,13.3,13.3,0,0,1,7.15,1.85,11.94,11.94,0,0,1,4.48,4.83L349.38,184a8.68,8.68,0,0,0-1.55-2.33,7.66,7.66,0,0,0-2-1.51,8.43,8.43,0,0,0-2.24-.79,11.18,11.18,0,0,0-2.24-.24,8.8,8.8,0,0,0-4.23,1,9.37,9.37,0,0,0-3,2.56,11.63,11.63,0,0,0-1.86,3.58,13.3,13.3,0,0,0-.62,4,12.4,12.4,0,0,0,.73,4.27,11.44,11.44,0,0,0,2.05,3.57,10,10,0,0,0,3.12,2.48,8.57,8.57,0,0,0,4,.93,10.39,10.39,0,0,0,2.3-.28,8.56,8.56,0,0,0,2.28-.91,8.92,8.92,0,0,0,2-1.57,7.73,7.73,0,0,0,1.53-2.28l4,2.28a9.43,9.43,0,0,1-2.07,3,13.61,13.61,0,0,1-3,2.22,15.27,15.27,0,0,1-3.55,1.37,14.84,14.84,0,0,1-3.69.48,12.67,12.67,0,0,1-5.9-1.38,15.49,15.49,0,0,1-4.61-3.6,16.7,16.7,0,0,1-3-5A16.17,16.17,0,0,1,326.72,190Z"/><path class="cls-5" d="M390.79,201.22v4.27h-21V174.9h20.6v4.27H374.63v8.7h13.66v4H374.63v9.34Z"/></svg>