<svg id="Layer_1" data-name="Layer 1" xmlns="http://www.w3.org/2000/svg" xmlns:xlink="http://www.w3.org/1999/xlink" viewBox="0 0 443.49 443.49"><defs><style>.cls-1{fill:url(#linear-gradient);}</style><linearGradient id="linear-gradient" x1="138.09" y1="301.83" x2="447.74" y2="25.5" gradientUnits="userSpaceOnUse"><stop offset="0" stop-color="#b3307c"/><stop offset="1" stop-color="#ff3183"/></linearGradient></defs><title>logo</title><path class="cls-1" d="M410.2,23a10.44,10.44,0,0,1,8.16,4.17,10,10,0,0,1,1.74,9L319.19,412.75A10.3,10.3,0,0,1,309,420.49a9.91,9.91,0,0,1-7.23-3.07L26.07,141.73a10.43,10.43,0,0,1,4.67-17.43L407.35,23.39A10.92,10.92,0,0,1,410.2,23m0-23a34.33,34.33,0,0,0-8.81,1.17L24.79,102.09C-.06,108.74-8.38,139.8,9.81,158L285.5,433.68a32.94,32.94,0,0,0,23.5,9.81,33.34,33.34,0,0,0,32.41-24.78L442.32,42.1C448.18,20.23,431.27,0,410.2,0Z"/></svg>